<?xml version="1.0" encoding="UTF-8"?>
<svg width="92px" height="92px" viewBox="0 0 92 92" version="1.1" xmlns="http://www.w3.org/2000/svg" xmlns:xlink="http://www.w3.org/1999/xlink">
    <title>导入中</title>
    <g id="最新4.0" stroke="none" stroke-width="1" fill="none" fill-rule="evenodd">
        <g id="导入视觉稿" transform="translate(-508.000000, -1456.000000)">
            <g id="Group-26-Copy-6" transform="translate(234.000000, 1315.000000)">
                <g id="Group-3" transform="translate(264.000000, 131.000000)">
                    <g id="导入中" transform="translate(10.000000, 10.000000)">
                        <rect id="Rectangle" fill="#000000" fill-rule="nonzero" opacity="0" x="0" y="0" width="92" height="92"></rect>
                        <path d="M83.6540041,79.3390256 C82.8685832,79.3390256 82.1293634,79.4776494 81.436345,79.754897 L73.1201232,72.1305876 L73.1201232,62.2420894 C83.2843943,60.4399799 91,51.5218483 91,40.8478152 C91,30.6358614 83.7926078,21.8101457 73.9517454,19.6383727 C69.7936345,7.99397288 58.5205339,0 46,0 C33.4794661,0 22.2525667,7.99397288 18.0482546,19.6383727 C8.2073922,21.8101457 1,30.6358614 1,40.8478152 C1,51.752888 9.08521561,60.8096434 19.5728953,62.3345053 L19.5728953,72.1305876 L15.8767967,75.5499749 C15.1837782,75.3189352 14.4445585,75.1341035 13.7053388,75.1341035 C10.1940452,75.1341035 7.37577002,77.9527875 7.37577002,81.4645907 C7.37577002,84.9763938 10.1940452,87.7950779 13.7053388,87.7950779 C17.2166324,87.7950779 20.0349076,84.9763938 20.0349076,81.4645907 C20.0349076,80.8638875 19.9425051,80.3093923 19.8039014,79.754897 L25.3942505,74.6258162 L25.3942505,62.565545 L35.5585216,62.565545 L35.5585216,68.3877449 C33.4332649,69.4043194 32.0010267,71.5760924 32.0010267,74.0713209 C32.0010267,77.5831241 34.8193018,80.4018081 38.3305955,80.4018081 C41.8418891,80.4018081 44.6601643,77.5831241 44.6601643,74.0713209 C44.6601643,71.6685083 43.3203285,69.5891512 41.3336756,68.4801607 L41.3336756,62.565545 L51.2669405,62.565545 L51.2669405,74.76444 C49.2340862,75.8272225 47.8480493,77.9527875 47.8480493,80.4018081 C47.8480493,83.9136113 50.6663244,86.7322953 54.1776181,86.7322953 C57.6889117,86.7322953 60.5071869,83.9136113 60.5071869,80.4018081 C60.5071869,77.9527875 59.1211499,75.8272225 57.0882957,74.76444 L57.0882957,62.565545 L67.4835729,62.565545 L67.4835729,74.6258162 L77.6478439,84.0060271 C77.5092402,84.5143144 77.4168378,85.0688096 77.4168378,85.6695128 C77.4168378,89.1813159 80.2351129,92 83.7464066,92 C87.2577002,92 90.0759754,89.1813159 90.0759754,85.6695128 C90.0759754,82.1577097 87.1652977,79.3390256 83.6540041,79.3390256 L83.6540041,79.3390256 Z M6.775154,40.8478152 C6.775154,32.9000502 12.7351129,26.1074837 20.6355236,25.0447012 L22.4835729,24.8136615 L22.9917864,23.011552 C25.9486653,12.8458061 35.4199179,5.77599196 46,5.77599196 C56.5800821,5.77599196 66.0513347,12.8458061 69.0082136,23.011552 L69.5164271,24.8136615 L71.3644764,25.0447012 C79.2648871,26.0612757 85.224846,32.8538423 85.224846,40.8478152 C85.224846,49.627323 78.063655,56.789553 69.2854209,56.789553 L22.6683778,56.789553 C13.8901437,56.789553 6.775154,49.627323 6.775154,40.8478152 Z M44.6601643,43.4816675 L66.513347,43.4816675 L66.513347,49.2576595 L44.6601643,49.2576595 L44.6601643,43.4816675 Z M32.4168378,43.4816675 L38.1919918,43.4816675 L38.1919918,49.2576595 L32.4168378,49.2576595 L32.4168378,43.4816675 Z" id="Shape" fill="#E2E2E2"></path>
                    </g>
                </g>
            </g>
        </g>
    </g>
</svg>